<mxfile host="app.diagrams.net" modified="2023-03-29T20:23:32.897Z" agent="Mozilla/5.0 (Macintosh; Intel Mac OS X 10_15_7) AppleWebKit/537.36 (KHTML, like Gecko) Chrome/110.0.0.0 Safari/537.36" etag="QIvp7y2HkeiF6_AcUpk5" version="21.1.1" type="github" pages="2">
  <diagram name="Option_1: Inside_Optum" id="yTjBNJUCtUH3Ub_U6fUW">
    <mxGraphModel dx="1242" dy="828" grid="1" gridSize="10" guides="1" tooltips="1" connect="1" arrows="1" fold="1" page="1" pageScale="1" pageWidth="1100" pageHeight="850" math="0" shadow="0">
      <root>
        <mxCell id="_YCeMTjPJ7ek2-jhqzVR-0" />
        <mxCell id="_YCeMTjPJ7ek2-jhqzVR-1" parent="_YCeMTjPJ7ek2-jhqzVR-0" />
        <mxCell id="_YCeMTjPJ7ek2-jhqzVR-2" value="Optum AWS account" style="points=[[0,0],[0.25,0],[0.5,0],[0.75,0],[1,0],[1,0.25],[1,0.5],[1,0.75],[1,1],[0.75,1],[0.5,1],[0.25,1],[0,1],[0,0.75],[0,0.5],[0,0.25]];outlineConnect=0;gradientColor=none;html=1;whiteSpace=wrap;fontSize=12;fontStyle=0;container=1;pointerEvents=0;collapsible=0;recursiveResize=0;shape=mxgraph.aws4.group;grIcon=mxgraph.aws4.group_account;strokeColor=#CD2264;fillColor=none;verticalAlign=top;align=left;spacingLeft=30;fontColor=#CD2264;dashed=0;" parent="_YCeMTjPJ7ek2-jhqzVR-1" vertex="1">
          <mxGeometry x="40" y="40" width="800" height="560" as="geometry" />
        </mxCell>
        <mxCell id="_YCeMTjPJ7ek2-jhqzVR-3" value="Postgres" style="strokeWidth=2;html=1;shape=mxgraph.flowchart.database;whiteSpace=wrap;" parent="_YCeMTjPJ7ek2-jhqzVR-2" vertex="1">
          <mxGeometry x="40" y="200" width="80" height="80" as="geometry" />
        </mxCell>
        <mxCell id="_YCeMTjPJ7ek2-jhqzVR-6" value="HashiCorp Key Vault" style="sketch=0;pointerEvents=1;shadow=0;dashed=0;html=1;strokeColor=none;fillColor=#005F4B;labelPosition=center;verticalLabelPosition=bottom;verticalAlign=top;align=center;outlineConnect=0;shape=mxgraph.veeam2.encryption_key;" parent="_YCeMTjPJ7ek2-jhqzVR-2" vertex="1">
          <mxGeometry x="269.16" y="240" width="61.67" height="60" as="geometry" />
        </mxCell>
        <mxCell id="_YCeMTjPJ7ek2-jhqzVR-7" value="Redshift DW&lt;br&gt;(Coaching)" style="outlineConnect=0;dashed=0;verticalLabelPosition=bottom;verticalAlign=top;align=center;html=1;shape=mxgraph.aws3.redshift;fillColor=#2E73B8;gradientColor=none;" parent="_YCeMTjPJ7ek2-jhqzVR-2" vertex="1">
          <mxGeometry x="680" y="80" width="80" height="80" as="geometry" />
        </mxCell>
        <mxCell id="_YCeMTjPJ7ek2-jhqzVR-9" value="Cloudera" style="html=1;whiteSpace=wrap;strokeColor=none;fillColor=#0079D6;labelPosition=center;verticalLabelPosition=middle;verticalAlign=top;align=center;fontSize=12;outlineConnect=0;spacingTop=-6;fontColor=#FFFFFF;sketch=0;shape=mxgraph.sitemap.cloud;" parent="_YCeMTjPJ7ek2-jhqzVR-2" vertex="1">
          <mxGeometry x="239.99999999999997" y="80" width="120" height="80" as="geometry" />
        </mxCell>
        <mxCell id="_YCeMTjPJ7ek2-jhqzVR-10" value="" style="curved=1;endArrow=classic;html=1;rounded=0;exitX=1;exitY=0.5;exitDx=0;exitDy=0;exitPerimeter=0;entryX=0;entryY=0.5;entryDx=0;entryDy=0;entryPerimeter=0;" parent="_YCeMTjPJ7ek2-jhqzVR-2" source="_YCeMTjPJ7ek2-jhqzVR-3" target="_YCeMTjPJ7ek2-jhqzVR-9" edge="1">
          <mxGeometry width="50" height="50" relative="1" as="geometry">
            <mxPoint x="170" y="320" as="sourcePoint" />
            <mxPoint x="220" y="270" as="targetPoint" />
            <Array as="points">
              <mxPoint x="210" y="250" />
              <mxPoint x="190" y="120" />
            </Array>
          </mxGeometry>
        </mxCell>
        <mxCell id="_YCeMTjPJ7ek2-jhqzVR-11" value="Airflow" style="shape=image;imageAspect=0;aspect=fixed;verticalLabelPosition=bottom;verticalAlign=top;image=data:image/png,iVBORw0KGgoAAAANSUhEUgAAAOEAAADhCAMAAAAJbSJIAAABvFBMVEX///8Ax9QArUbkOSEBfO4R4e4E1ln/dVcMtv8Aw9FKSEgAeu4Aq0UAce0Muf/jNR0AdO0Ac+0ApzEAqj0Ay9oAqTjiHwAAvP//eFkAs///c1T/bkrjKQAR4/QL1uPiHADjLxAE20r++fjjMhb/aEUE2VEAdfbrd2q97fH2Ykb9xbz0XkPtLQAAr/8DhPABf+/d6vwDw1DP4vv97+3oWUj2yMP64+HwnJRk1uCj5euL4Ofzs63lQy7529jsgXbs+vvW9Pb9lYLTiXdUwf4Gk/QJpPo/SUm81vkCoroDwYUDtJ4DyVN7r/SlyPcBhOMQ3OADs1tGlPEN0cFvyIvk9eqNuvW+5cpcwnzT7tue2K/oY1XtiX/oX1DmSzhR093xp6D9pJS7XmuTgKaUfqK/UlpTndajcIrBi33C6P9osbSxZXeDhKydoJzURj3ggm3o9f7xel9Iot5qksONpqNgs7e2lot6zf7YQjSZ1/69k4e2Pi8wgKhfTktNPjQ+e38oZ7Egacg/YmVgoPJITUBNNzU6aUdNPUgqp6QDzWwBj9QBitwLyqwDw38LzLADu5ACoL1k34d64ptNvXCX56+Q7ganAAAOWklEQVR4nO3d+38TxxEA8NPLspGtkyUkjCSwgrAcklgCjIFg+dHUhIQQcGLHWObhJiRp82gMfYUmbdKSNpBCaQv/cPdOJ+nutO+ZtcSnnZ/8Aaz4+5nZmd3TyrGs/4k4Oz8/f+zYoH8Kc7EwXSAx7UShbDdvndmZnV1evnHj3O7iKwtLRP+i2s9Hzre/aNqxXtgkqk5UKpUyCWIvV2NEvXzj3CLxvkDa82ORsdfdr25VY4Jw1Y6YpLpya2eZWM/OD/jnFwYBRsYuuF8ulW0RMcAlWGIt22eWdxeWhjanDrAjVCV2E0uyWig0d24sLg1fQl1gJOIJrbMVHWInpY4zNntuYZiYHrArBBF7zubs7tIgWb244AEjr3f/aL5ahRHbzHJhemcIlF2gT2jN2whEJ6qVgj27ONCK7QH9Qjyim8vpM7tnhwAYEFrzTTSio6wUbu0OJJN+4NjLgb/CJTrI6ZuL+z4vX/cBw0LrmHh3oxjVcnl5fxtPANgnJMQKMjEWqxTOLAwK2C+0jp3BJ5JEVhcHA6QIzRBjdjm2L8aXQ8DI2CrlX900QXSMr+w/kC40RIzZhTOGe04/kCG0dswQY9XpZZOzgwKMjK3Q/+1O2QwxVqmaa6s0IFNojmhPLxsCrtKAkQhLaM2aIsYqTSP7VQaQmUOTRLtgoKkygJwcWtayMWJs+ty+ASO877pRMEYsIC/GVZaPLzRJLM/uE5AvNErcwQOucIAHBd97zhyxcnM/gJHbou9+AYhcoFholDiFsYXjAzvvzPBi1xyxehdOFADHLohfwtqdNiW0m+AsCoByQmvRWBbtE1Owh3EioO+hPp9oLIvNZBKURSEw+LiUQzSVRftEsQjIohhIeUxDj1dMZbE5BSAeZG5Ge8JV2RdbMJRFu5jUJkoAFYTWgqEs3ppKFktaB8bbEkDe8bCfWAC+wUgPeyqpR5QCRsZUXtIM0T6R1CLelvFFREeLUCwZITandIiyQDWh5n0GUTjCZLKk9ChVGijeeIeIBrJIuqkbxxWI56XWoI7QWoLeZ6AITyRVifJAmaNFKM7iF+qrU4pEBaDcxjtErGITmx1h8rjU83AFoPS2NESsIhO7QiniBRWg9LY0EPMxXKKd7MVx4bNiJaDKps0gsdNMpYhqQKVNmzliQCggKgK5z/S5cQzzVkp3XIiJykDFLY0hYkjIIaoDRc+DeUS8izf2iSk5ojpQY+D7iVjvhNuvhoQMYvgeiUToDHwfEetWSr8weZxyM0UDqDfwfYFEpAiTx3dRgHoD3xc4VzZowj4i9RaCWLgKFOIQw720HaVfwIFqzzAYRIR3wunCAFETCBiHvUC4zxDc09CI2kDl868ZIkuYLP0MCByDjENEos0AdojsaxbCAA6LALFaLpd1n3BQWqmPCACCh0UnlsuV8ocffXHnw+ZrOsgmW0iI2iUa0T87UYgfjx5Kp9OH0p98WlZ/jsMTJku/PAgQYgGtX416kT40eqesOCOpA99H/ExfCDhZhIBzo704NPr5a2of9aOPw04U9ZOI1EpDQMf4G1sljcxh4cVd/TJFaqVhIKlVkkYFIh+YnNLPIU4r7Qc6afxCvlK5jQaUQ5xWepIGJMRPKlVJIb/RJItv6FcpCvAwFUgq9Z7kkxxBo0kWv9QWYuxKmUBnMf5aqt+IGk1poHu2PTZQnigo0q/0l+GqWaAsUdBoSp/pC00DnRATBTuaImAagnc0e0IfyeLXVdgyhKQQ9CRRLoMOMSaai/wUAkYFdN5LZNAl3hOM/lv8bffgjk4rckBnk8rdwPGnYem3gKMTcBnKAgnxDo/IfoIBrFHoMpQHEuLHnIbKmxXFKX0fdBmmVYSjo03mUuTOiuLvACmETcO0TBvtBek2TCFnVgAGhROQTaki0D1LqRcpqMtEQJvSn6sC2UuRU6Ql/SOFG4BNqQaQBP0pI7tIoUDA2VAPmKZPRWaRgoH6s0IPSOr0c0qdMsc9dA0CilQXSMKm1KkxoHaRAoC0OqUXabEEmoPt0CxSAJDU6YfhOqUXafEuAlCzSP8AAZLoe0eDlsLSVxE4UHPc94BpJ/xfS+3iDn0UrFPqMCz9HsHX+V2JWkCimbu4tlavNxpxJxqNen1t7eLcqAQz/XUgiZRhWCzCdmpdoS4wPTq3Vo+nSMT94fxBqlFvO3nCYLPp7zOlr8ZwgDp95v7h0fTcWiNkC0PjhMlRBjZvfX2miFOhEb0+c/9w+mI9nDsGs742x0AGDxmhFKL00HZo9Jn7hy82xLqesuGkkpbET7tJDPWZYumPGD3UDY0U3if5k/Z1U0lFdnfgtqkE6qTw/pqiz1PG+zN56E7naor/GRtZgWgJ1Hl8cV9i+bEyGe9bk97Y942KYukNnBbqhfIztkuTmj4P2Vg7nPYn8bXQqCjexZmBnVBO4aUJCLCNXLvoS6T7kZvuqCgWv0QsUCdUVyEc6CJ7iSRJtMlBagq9g3qh2khPowDjbiLnPKP9zTdfH58ysADdULxgchK0BsNGd36kv32TxJ/uOj7ECdENNaAV1+2iDGTjYvrbPx9wo2jEp9pm3sMFukYPeOA7A77ImGKbuZLBBsZT33eEb5oQKn7KCaeNsoQHhqBG0UvUEf6lI/wrvlD1WPjAQI1ONi7/0Ab+7eFRdKDiIsSv0dRk/fLMzKkfXeB3iUQC2ai6H8X3xYlvZGTk1N8P/PjDwyOJBLZR8W177D6aiT90fSSiuVz+7baQGNGWoyIQczNDIlV7a8TzjUTHo9Fo9lqiGziJXFUDWg8wG2mqdu/RSyOdcIDRXDeJSIlUBZ7EbDOTV9/u+UZORd3I+5LYTiTg5kwkonysR0xhKvPwpZkesJ3CcBKB1XpQGYiYwtpPj/y+kVOekKzEPqJutR5Vv1eClsJM5vJLI4GIdiL3pF/oIJUzeTShDkRLYe2nd2aCwHfGu8Ts+1SiYiqPJjSA1hWcFKZq4QR6o8KLdZbQTaWM8iDx6QAtnGE/+Y9HM2HgiA8YzT/mEMVKl5dI6LyP9i6GkMz4fl+vz7SXIhfYYVKcB48e7fy91huFqk/wqcDU074K9fcZ1sTgUtsR+FMtIEafyVylVGigzzAnhlLo3UdA2HPX7tF8wT4jbDbGgAhH+9pbtAoN9RmpZmMECHubwgX2Dwlan6FuT/cBCN/P1Kg9hlqkzJ2NSSC0SFO1t+lrkFakTrP5pyZRGwgs0lTmCRN4igLUrlP9z78Cd2yT7AyOUIHRnFY/BXzAFwbklGjfMOwm8ak6EQCEvZvG7KLsIo3yDhkGgNYHkBwy5yCnSN1QXYoAoHUVIMz8xANSO6neUoQA9wA7tlSd56ONe82lCAFalwDCGntOuEXKESpNRRAQsuue5C5CXpGqdRsYEHA0TF3lZpA5K7prUfIgBQSu6M8K3iR0lyEfGI2O7wcQsAxT/D7KnRVeEtf3AQiYhrUnfKBgGUoSwUD9uxfCFIqWoRQRDtTflNae8leheBlKEBF+UYn+M6iUoEb509BH5HRUjN/Eov2gVFikEsuwTRxnElF+1Yz2vM/Qnv6qLsN25BmjH+fXkmlvuzOXRctQWhjNUveoSL93TXsaZh7iCaN5ymJEAurfTsj8SyCU95HI5R8fOWICCNnRCDalso2ml8b3fcYjq0hA6wP9g0VNsBAVhWQ1OkYXeSSxgQWEPAtOxf/NI8q3Ul8eo0/fv5ZIXHsczaIRAUen+J7FI6o0ml7k8tl8PpsjWCyi/jJM7ZFv5xCl9my8fF5HAWrv2VKpk+4LsIl6OUQn6rbSVGbPewUmUW5XapyouyvNnOy+xH8YRLgQhaj5joUPyCSCfQ7xGViod/wNAFlEDGE0ByY2dICTp0OvQiXCixSDuKKzDPuAlvWcQkQBOgdkkFBn3z3RD6QSkYRA4ml1IRVII2IJYUT1YTFxifFSz8PPNNCEIKLyyYIJtKwW61IpAnFc+7CoOg45QEKcMSUEEBXPTlxgmIiwp/ERo5t6QrXHUBPvCl4uQATvvFGIahkUAS1ry0eEnp76QouocnaSAAaIuDkkkdMg7ikIpYB+os5TDHSiwsCf+EDyNbe7RHRhNK9MlD//SgN9RHQgyeK2olB6S6MA7BHRWw2JrCJRdkszcUXpZT0i/kIkkVcjSm5pJtWAlrU5Y6pMVbMot6XJqAI7RNRdTY+4pfCDSD3D0AASorEyVSPKbNoyDzSAHtGMUIUo8ZRGE9gmmuimakSDwDbRUBKliSvCIgUAHeKMqSRGsy2pH0F4sTTzHgBIwlwSJYmijTcUaFnvoB8w1IiCN55SYCAh5gZK5B8tMICW9ShnSihD5B4t4CU6BESeMFXHAVrWM4PE54L/NufwhAckxLw5ouDNfrYQE2hZ1wdGZB4PUw20/5WnGxvZARFZx8NUfY/3bRrx3ByReyuFIXQuymDH1mCI9ANwqoEPtKztqLGWyrnPQBWayKAbz4ylkU2kCdtXnYxEK28qjcwrG5SHGJ2rTkZi01gaWUSKMGMQSGIrZyiNjCsb/fcSDQMtc6VKJ9bDwAnjQFKqG1kjRiox/CAqQ79mgW80kkfafYZQkTLukRiIlVbOwFaVQgxuSylXnQxGax2/WPuJE4PJoBfbGznsas2th04MfqHgmoWZ2LqexUWGb6VMDBjYRqJmMnRlY2LwQCe2NqJ4qQwSJ4YC6MRm61kOTdkjdj/ELXnNwnBst67ncZRdYueR93AA3djc2nCTCXN2b6V4wiECtsNl5vMAZ4fYFipds9i/2NxqbTxbdz4ipAP1iO7bFkMK7IQDvb7e/jRUTsGac+fiXm3ogZ1Y2dwm1I3rz9Zz2SzBulye13sL9cHECwIMxOb29tZWq9VyvOPjJL35rKduh2PP5729zel9OA+ajpWVTRKO2o2WExstzfu2/48hi/8CQY87NwjW+zEAAAAASUVORK5CYII=;" parent="_YCeMTjPJ7ek2-jhqzVR-2" vertex="1">
          <mxGeometry x="40" y="40" width="40" height="40" as="geometry" />
        </mxCell>
        <mxCell id="_YCeMTjPJ7ek2-jhqzVR-12" value="Decrypt" style="endArrow=none;dashed=1;html=1;dashPattern=1 3;strokeWidth=2;rounded=0;exitX=0.5;exitY=1;exitDx=0;exitDy=0;exitPerimeter=0;" parent="_YCeMTjPJ7ek2-jhqzVR-2" source="_YCeMTjPJ7ek2-jhqzVR-9" target="_YCeMTjPJ7ek2-jhqzVR-6" edge="1">
          <mxGeometry x="-0.5048" y="-2" width="50" height="50" relative="1" as="geometry">
            <mxPoint x="350" y="110" as="sourcePoint" />
            <mxPoint x="300" y="180" as="targetPoint" />
            <mxPoint as="offset" />
          </mxGeometry>
        </mxCell>
        <mxCell id="_YCeMTjPJ7ek2-jhqzVR-13" value="Snowflake DW" style="shape=image;html=1;verticalAlign=top;verticalLabelPosition=bottom;labelBackgroundColor=#ffffff;imageAspect=0;aspect=fixed;image=https://cdn4.iconfinder.com/data/icons/christmas-2434/128/Artboard_3-128.png" parent="_YCeMTjPJ7ek2-jhqzVR-2" vertex="1">
          <mxGeometry x="680" y="280" width="80" height="80" as="geometry" />
        </mxCell>
        <mxCell id="_YCeMTjPJ7ek2-jhqzVR-27" value="&lt;b&gt;Databricks&lt;/b&gt;" style="sketch=0;aspect=fixed;html=1;points=[];align=center;image;fontSize=12;image=img/lib/mscae/Databricks.svg;" parent="_YCeMTjPJ7ek2-jhqzVR-2" vertex="1">
          <mxGeometry x="276.67" y="420" width="83.33" height="80" as="geometry" />
        </mxCell>
        <mxCell id="_YCeMTjPJ7ek2-jhqzVR-31" style="edgeStyle=orthogonalEdgeStyle;rounded=0;orthogonalLoop=1;jettySize=auto;html=1;" parent="_YCeMTjPJ7ek2-jhqzVR-2" source="_YCeMTjPJ7ek2-jhqzVR-27" target="_YCeMTjPJ7ek2-jhqzVR-6" edge="1">
          <mxGeometry relative="1" as="geometry">
            <mxPoint x="481" y="280" as="targetPoint" />
            <Array as="points" />
          </mxGeometry>
        </mxCell>
        <mxCell id="_YCeMTjPJ7ek2-jhqzVR-32" value="&lt;b&gt;decrypts using key&lt;/b&gt;" style="edgeLabel;html=1;align=center;verticalAlign=middle;resizable=0;points=[];" parent="_YCeMTjPJ7ek2-jhqzVR-31" vertex="1" connectable="0">
          <mxGeometry x="-0.1147" y="1" relative="1" as="geometry">
            <mxPoint x="26" y="24" as="offset" />
          </mxGeometry>
        </mxCell>
        <mxCell id="_YCeMTjPJ7ek2-jhqzVR-14" style="edgeStyle=orthogonalEdgeStyle;rounded=0;orthogonalLoop=1;jettySize=auto;html=1;exitX=0.5;exitY=0;exitDx=0;exitDy=0;exitPerimeter=0;entryX=0.5;entryY=0;entryDx=0;entryDy=0;entryPerimeter=0;" parent="_YCeMTjPJ7ek2-jhqzVR-2" source="_YCeMTjPJ7ek2-jhqzVR-9" target="_YCeMTjPJ7ek2-jhqzVR-7" edge="1">
          <mxGeometry relative="1" as="geometry">
            <mxPoint x="680" y="80" as="targetPoint" />
            <Array as="points">
              <mxPoint x="300" y="40" />
              <mxPoint x="720" y="40" />
            </Array>
          </mxGeometry>
        </mxCell>
        <mxCell id="_YCeMTjPJ7ek2-jhqzVR-15" value="&lt;font style=&quot;font-size: 14px;&quot;&gt;Airlift&lt;/font&gt;" style="edgeLabel;html=1;align=center;verticalAlign=middle;resizable=0;points=[];" parent="_YCeMTjPJ7ek2-jhqzVR-14" vertex="1" connectable="0">
          <mxGeometry x="-0.025" y="-2" relative="1" as="geometry">
            <mxPoint x="-24" y="-2" as="offset" />
          </mxGeometry>
        </mxCell>
        <mxCell id="RhCtWxVIiaAmlEP4cXZK-0" value="PySpark" style="shape=image;html=1;verticalAlign=top;verticalLabelPosition=bottom;labelBackgroundColor=#ffffff;imageAspect=0;aspect=fixed;image=https://cdn0.iconfinder.com/data/icons/long-shadow-web-icons/512/python-128.png" vertex="1" parent="_YCeMTjPJ7ek2-jhqzVR-2">
          <mxGeometry x="360" y="480" width="40" height="40" as="geometry" />
        </mxCell>
        <mxCell id="_YCeMTjPJ7ek2-jhqzVR-16" value="RVO AWS account (Region = us-east-1)" style="points=[[0,0],[0.25,0],[0.5,0],[0.75,0],[1,0],[1,0.25],[1,0.5],[1,0.75],[1,1],[0.75,1],[0.5,1],[0.25,1],[0,1],[0,0.75],[0,0.5],[0,0.25]];outlineConnect=0;gradientColor=none;html=1;whiteSpace=wrap;fontSize=12;fontStyle=0;container=1;pointerEvents=0;collapsible=0;recursiveResize=0;shape=mxgraph.aws4.group;grIcon=mxgraph.aws4.group_account;strokeColor=#CD2264;fillColor=none;verticalAlign=top;align=left;spacingLeft=30;fontColor=#CD2264;dashed=0;" parent="_YCeMTjPJ7ek2-jhqzVR-1" vertex="1">
          <mxGeometry x="40" y="680" width="800" height="480" as="geometry" />
        </mxCell>
        <mxCell id="_YCeMTjPJ7ek2-jhqzVR-17" style="edgeStyle=orthogonalEdgeStyle;rounded=0;orthogonalLoop=1;jettySize=auto;html=1;" parent="_YCeMTjPJ7ek2-jhqzVR-16" source="_YCeMTjPJ7ek2-jhqzVR-18" target="_YCeMTjPJ7ek2-jhqzVR-30" edge="1">
          <mxGeometry relative="1" as="geometry" />
        </mxCell>
        <mxCell id="_YCeMTjPJ7ek2-jhqzVR-18" value="" style="sketch=0;pointerEvents=1;shadow=0;dashed=0;html=1;strokeColor=none;fillColor=#DF8C42;labelPosition=center;verticalLabelPosition=bottom;verticalAlign=top;align=center;outlineConnect=0;shape=mxgraph.veeam2.aws_s3;" parent="_YCeMTjPJ7ek2-jhqzVR-16" vertex="1">
          <mxGeometry x="480" y="160" width="80" height="80" as="geometry" />
        </mxCell>
        <mxCell id="_YCeMTjPJ7ek2-jhqzVR-19" value="Shared Services" style="swimlane;startSize=0;" parent="_YCeMTjPJ7ek2-jhqzVR-16" vertex="1">
          <mxGeometry x="80" y="320" width="640" height="119.59" as="geometry" />
        </mxCell>
        <mxCell id="_YCeMTjPJ7ek2-jhqzVR-20" value="Lake Formation &lt;br&gt;(PII/PHI)" style="sketch=0;points=[[0,0,0],[0.25,0,0],[0.5,0,0],[0.75,0,0],[1,0,0],[0,1,0],[0.25,1,0],[0.5,1,0],[0.75,1,0],[1,1,0],[0,0.25,0],[0,0.5,0],[0,0.75,0],[1,0.25,0],[1,0.5,0],[1,0.75,0]];outlineConnect=0;fontColor=#232F3E;gradientColor=#945DF2;gradientDirection=north;fillColor=#5A30B5;strokeColor=#ffffff;dashed=0;verticalLabelPosition=bottom;verticalAlign=top;align=center;html=1;fontSize=12;fontStyle=0;aspect=fixed;shape=mxgraph.aws4.resourceIcon;resIcon=mxgraph.aws4.lake_formation;" parent="_YCeMTjPJ7ek2-jhqzVR-19" vertex="1">
          <mxGeometry x="520" y="40" width="40" height="40" as="geometry" />
        </mxCell>
        <mxCell id="_YCeMTjPJ7ek2-jhqzVR-21" value="Glue Data Catalog" style="sketch=0;outlineConnect=0;fontColor=#232F3E;gradientColor=none;fillColor=#4D27AA;strokeColor=none;dashed=0;verticalLabelPosition=bottom;verticalAlign=top;align=center;html=1;fontSize=12;fontStyle=0;aspect=fixed;pointerEvents=1;shape=mxgraph.aws4.glue_data_catalog;" parent="_YCeMTjPJ7ek2-jhqzVR-19" vertex="1">
          <mxGeometry x="281" y="39" width="40" height="43.33" as="geometry" />
        </mxCell>
        <mxCell id="_YCeMTjPJ7ek2-jhqzVR-22" value="KMS" style="outlineConnect=0;dashed=0;verticalLabelPosition=bottom;verticalAlign=top;align=center;html=1;shape=mxgraph.aws3.kms;fillColor=#759C3E;gradientColor=none;" parent="_YCeMTjPJ7ek2-jhqzVR-19" vertex="1">
          <mxGeometry x="40" y="39" width="40" height="40" as="geometry" />
        </mxCell>
        <mxCell id="_YCeMTjPJ7ek2-jhqzVR-25" value="Airflow" style="sketch=0;points=[[0,0,0],[0.25,0,0],[0.5,0,0],[0.75,0,0],[1,0,0],[0,1,0],[0.25,1,0],[0.5,1,0],[0.75,1,0],[1,1,0],[0,0.25,0],[0,0.5,0],[0,0.75,0],[1,0.25,0],[1,0.5,0],[1,0.75,0]];outlineConnect=0;fontColor=#232F3E;gradientColor=#FF4F8B;gradientDirection=north;fillColor=#BC1356;strokeColor=#ffffff;dashed=0;verticalLabelPosition=bottom;verticalAlign=top;align=center;html=1;fontSize=12;fontStyle=0;aspect=fixed;shape=mxgraph.aws4.resourceIcon;resIcon=mxgraph.aws4.managed_workflows_for_apache_airflow;" parent="_YCeMTjPJ7ek2-jhqzVR-16" vertex="1">
          <mxGeometry x="41" y="41" width="39" height="39" as="geometry" />
        </mxCell>
        <mxCell id="_YCeMTjPJ7ek2-jhqzVR-29" value="" style="endArrow=none;dashed=1;html=1;dashPattern=1 3;strokeWidth=2;rounded=0;" parent="_YCeMTjPJ7ek2-jhqzVR-16" edge="1">
          <mxGeometry width="50" height="50" relative="1" as="geometry">
            <mxPoint x="519" y="320" as="sourcePoint" />
            <mxPoint x="519" y="240" as="targetPoint" />
          </mxGeometry>
        </mxCell>
        <mxCell id="_YCeMTjPJ7ek2-jhqzVR-30" value="Redshift DW&lt;br&gt;(Prevention)" style="outlineConnect=0;dashed=0;verticalLabelPosition=bottom;verticalAlign=top;align=center;html=1;shape=mxgraph.aws3.redshift;fillColor=#2E73B8;gradientColor=none;" parent="_YCeMTjPJ7ek2-jhqzVR-16" vertex="1">
          <mxGeometry x="680" y="160" width="80" height="80" as="geometry" />
        </mxCell>
        <mxCell id="_YCeMTjPJ7ek2-jhqzVR-33" value="Reports" style="strokeColor=#dddddd;shadow=1;strokeWidth=1;rounded=1;absoluteArcSize=1;arcSize=2;labelPosition=center;verticalLabelPosition=middle;align=center;verticalAlign=bottom;spacingLeft=0;fontColor=#999999;fontSize=12;whiteSpace=wrap;spacingBottom=2;html=1;" parent="_YCeMTjPJ7ek2-jhqzVR-1" vertex="1">
          <mxGeometry x="920" y="120" width="80" height="80" as="geometry" />
        </mxCell>
        <mxCell id="_YCeMTjPJ7ek2-jhqzVR-34" value="" style="sketch=0;dashed=0;connectable=0;html=1;fillColor=#757575;strokeColor=none;shape=mxgraph.gcp2.report;part=1;" parent="_YCeMTjPJ7ek2-jhqzVR-33" vertex="1">
          <mxGeometry x="0.5" width="50" height="50" relative="1" as="geometry">
            <mxPoint x="-25" y="10" as="offset" />
          </mxGeometry>
        </mxCell>
        <mxCell id="_YCeMTjPJ7ek2-jhqzVR-35" value="Tableau" style="text;html=1;strokeColor=none;fillColor=none;align=center;verticalAlign=middle;whiteSpace=wrap;rounded=0;" parent="_YCeMTjPJ7ek2-jhqzVR-1" vertex="1">
          <mxGeometry x="970" y="210" width="60" height="30" as="geometry" />
        </mxCell>
        <mxCell id="_YCeMTjPJ7ek2-jhqzVR-38" value="" style="endArrow=classic;html=1;rounded=0;" parent="_YCeMTjPJ7ek2-jhqzVR-1" target="_YCeMTjPJ7ek2-jhqzVR-13" edge="1">
          <mxGeometry width="50" height="50" relative="1" as="geometry">
            <mxPoint x="640" y="880" as="sourcePoint" />
            <mxPoint x="680" y="680" as="targetPoint" />
            <Array as="points">
              <mxPoint x="640" y="760" />
              <mxPoint x="640" y="570" />
              <mxPoint x="640" y="360" />
            </Array>
          </mxGeometry>
        </mxCell>
        <mxCell id="_YCeMTjPJ7ek2-jhqzVR-39" value="COPY" style="edgeLabel;html=1;align=center;verticalAlign=middle;resizable=0;points=[];" parent="_YCeMTjPJ7ek2-jhqzVR-38" vertex="1" connectable="0">
          <mxGeometry x="-0.2" y="-1" relative="1" as="geometry">
            <mxPoint x="-1" y="62" as="offset" />
          </mxGeometry>
        </mxCell>
        <mxCell id="_YCeMTjPJ7ek2-jhqzVR-40" style="edgeStyle=orthogonalEdgeStyle;rounded=0;orthogonalLoop=1;jettySize=auto;html=1;entryX=0.5;entryY=1;entryDx=0;entryDy=0;" parent="_YCeMTjPJ7ek2-jhqzVR-1" source="_YCeMTjPJ7ek2-jhqzVR-13" target="_YCeMTjPJ7ek2-jhqzVR-33" edge="1">
          <mxGeometry relative="1" as="geometry">
            <mxPoint x="930" y="250" as="targetPoint" />
          </mxGeometry>
        </mxCell>
        <mxCell id="_YCeMTjPJ7ek2-jhqzVR-41" style="edgeStyle=orthogonalEdgeStyle;rounded=0;orthogonalLoop=1;jettySize=auto;html=1;entryX=0;entryY=0.5;entryDx=0;entryDy=0;" parent="_YCeMTjPJ7ek2-jhqzVR-1" source="_YCeMTjPJ7ek2-jhqzVR-7" target="_YCeMTjPJ7ek2-jhqzVR-33" edge="1">
          <mxGeometry relative="1" as="geometry" />
        </mxCell>
        <mxCell id="_YCeMTjPJ7ek2-jhqzVR-42" value="Reports" style="strokeColor=#dddddd;shadow=1;strokeWidth=1;rounded=1;absoluteArcSize=1;arcSize=2;labelPosition=center;verticalLabelPosition=middle;align=center;verticalAlign=bottom;spacingLeft=0;fontColor=#999999;fontSize=12;whiteSpace=wrap;spacingBottom=2;html=1;" parent="_YCeMTjPJ7ek2-jhqzVR-1" vertex="1">
          <mxGeometry x="920" y="840" width="80" height="80" as="geometry" />
        </mxCell>
        <mxCell id="_YCeMTjPJ7ek2-jhqzVR-43" value="" style="sketch=0;dashed=0;connectable=0;html=1;fillColor=#757575;strokeColor=none;shape=mxgraph.gcp2.report;part=1;" parent="_YCeMTjPJ7ek2-jhqzVR-42" vertex="1">
          <mxGeometry x="0.5" width="50" height="50" relative="1" as="geometry">
            <mxPoint x="-25" y="10" as="offset" />
          </mxGeometry>
        </mxCell>
        <mxCell id="_YCeMTjPJ7ek2-jhqzVR-44" value="Tableau" style="text;html=1;strokeColor=none;fillColor=none;align=center;verticalAlign=middle;whiteSpace=wrap;rounded=0;" parent="_YCeMTjPJ7ek2-jhqzVR-1" vertex="1">
          <mxGeometry x="960" y="930" width="60" height="30" as="geometry" />
        </mxCell>
        <mxCell id="_YCeMTjPJ7ek2-jhqzVR-45" style="edgeStyle=orthogonalEdgeStyle;rounded=0;orthogonalLoop=1;jettySize=auto;html=1;entryX=0;entryY=0.5;entryDx=0;entryDy=0;" parent="_YCeMTjPJ7ek2-jhqzVR-1" source="_YCeMTjPJ7ek2-jhqzVR-30" target="_YCeMTjPJ7ek2-jhqzVR-42" edge="1">
          <mxGeometry relative="1" as="geometry" />
        </mxCell>
        <mxCell id="_YCeMTjPJ7ek2-jhqzVR-26" style="edgeStyle=orthogonalEdgeStyle;rounded=0;orthogonalLoop=1;jettySize=auto;html=1;exitX=1.024;exitY=0.481;exitDx=0;exitDy=0;exitPerimeter=0;" parent="_YCeMTjPJ7ek2-jhqzVR-1" source="_YCeMTjPJ7ek2-jhqzVR-27" target="_YCeMTjPJ7ek2-jhqzVR-18" edge="1">
          <mxGeometry relative="1" as="geometry">
            <Array as="points">
              <mxPoint x="560" y="499" />
            </Array>
          </mxGeometry>
        </mxCell>
        <mxCell id="_YCeMTjPJ7ek2-jhqzVR-28" value="" style="endArrow=none;dashed=1;html=1;dashPattern=1 3;strokeWidth=2;rounded=0;entryX=0.508;entryY=1.006;entryDx=0;entryDy=0;entryPerimeter=0;exitX=0.375;exitY=0.008;exitDx=0;exitDy=0;exitPerimeter=0;" parent="_YCeMTjPJ7ek2-jhqzVR-1" source="_YCeMTjPJ7ek2-jhqzVR-19" target="_YCeMTjPJ7ek2-jhqzVR-27" edge="1">
          <mxGeometry width="50" height="50" relative="1" as="geometry">
            <mxPoint x="400" y="732" as="sourcePoint" />
            <mxPoint x="450" y="682" as="targetPoint" />
          </mxGeometry>
        </mxCell>
        <mxCell id="KMj5E4Lz8tHzeBc2N0Ma-0" value="&lt;b&gt;Rally Health&lt;/b&gt;" style="text;html=1;strokeColor=none;fillColor=none;align=center;verticalAlign=middle;whiteSpace=wrap;rounded=0;" parent="_YCeMTjPJ7ek2-jhqzVR-1" vertex="1">
          <mxGeometry width="80" height="30" as="geometry" />
        </mxCell>
        <mxCell id="KMj5E4Lz8tHzeBc2N0Ma-1" value="&lt;b&gt;RVO Health&lt;/b&gt;" style="text;html=1;strokeColor=none;fillColor=none;align=center;verticalAlign=middle;whiteSpace=wrap;rounded=0;" parent="_YCeMTjPJ7ek2-jhqzVR-1" vertex="1">
          <mxGeometry y="1170" width="80" height="30" as="geometry" />
        </mxCell>
      </root>
    </mxGraphModel>
  </diagram>
  <diagram name="Option_2: Inside_RVO" id="Ek1pL3_suj74Txv8RKXf">
    <mxGraphModel dx="2342" dy="828" grid="1" gridSize="10" guides="1" tooltips="1" connect="1" arrows="1" fold="1" page="1" pageScale="1" pageWidth="1100" pageHeight="850" math="0" shadow="0">
      <root>
        <mxCell id="0" />
        <mxCell id="1" parent="0" />
        <mxCell id="rIcIW_MhtgpGFl4HYt5P-1" value="Optum AWS account" style="points=[[0,0],[0.25,0],[0.5,0],[0.75,0],[1,0],[1,0.25],[1,0.5],[1,0.75],[1,1],[0.75,1],[0.5,1],[0.25,1],[0,1],[0,0.75],[0,0.5],[0,0.25]];outlineConnect=0;gradientColor=none;html=1;whiteSpace=wrap;fontSize=12;fontStyle=0;container=1;pointerEvents=0;collapsible=0;recursiveResize=0;shape=mxgraph.aws4.group;grIcon=mxgraph.aws4.group_account;strokeColor=#CD2264;fillColor=none;verticalAlign=top;align=left;spacingLeft=30;fontColor=#CD2264;dashed=0;" parent="1" vertex="1">
          <mxGeometry x="40" y="40" width="800" height="440" as="geometry" />
        </mxCell>
        <mxCell id="rIcIW_MhtgpGFl4HYt5P-2" value="Postgres" style="strokeWidth=2;html=1;shape=mxgraph.flowchart.database;whiteSpace=wrap;" parent="rIcIW_MhtgpGFl4HYt5P-1" vertex="1">
          <mxGeometry x="40" y="200" width="80" height="80" as="geometry" />
        </mxCell>
        <mxCell id="CEZRXzg0aLq2lPMZZVaz-4" style="edgeStyle=orthogonalEdgeStyle;rounded=0;orthogonalLoop=1;jettySize=auto;html=1;" parent="rIcIW_MhtgpGFl4HYt5P-1" source="S5lNL_IuP7KgpRv0ErMl-4" target="J0XwKOYpJM9LGYpniT2R-3" edge="1">
          <mxGeometry relative="1" as="geometry">
            <Array as="points">
              <mxPoint x="380" y="320" />
              <mxPoint x="380" y="240" />
            </Array>
          </mxGeometry>
        </mxCell>
        <mxCell id="CEZRXzg0aLq2lPMZZVaz-6" value="Decrypt" style="edgeLabel;html=1;align=center;verticalAlign=middle;resizable=0;points=[];" parent="CEZRXzg0aLq2lPMZZVaz-4" vertex="1" connectable="0">
          <mxGeometry x="-0.2614" y="-3" relative="1" as="geometry">
            <mxPoint x="-8" y="-20" as="offset" />
          </mxGeometry>
        </mxCell>
        <mxCell id="S5lNL_IuP7KgpRv0ErMl-4" value="HashiCorp Key Vault" style="sketch=0;pointerEvents=1;shadow=0;dashed=0;html=1;strokeColor=none;fillColor=#005F4B;labelPosition=center;verticalLabelPosition=bottom;verticalAlign=top;align=center;outlineConnect=0;shape=mxgraph.veeam2.encryption_key;" parent="rIcIW_MhtgpGFl4HYt5P-1" vertex="1">
          <mxGeometry x="269.17" y="290" width="61.67" height="60" as="geometry" />
        </mxCell>
        <mxCell id="S5lNL_IuP7KgpRv0ErMl-9" value="Redshift DW&lt;br&gt;(Coaching)" style="outlineConnect=0;dashed=0;verticalLabelPosition=bottom;verticalAlign=top;align=center;html=1;shape=mxgraph.aws3.redshift;fillColor=#2E73B8;gradientColor=none;" parent="rIcIW_MhtgpGFl4HYt5P-1" vertex="1">
          <mxGeometry x="680" y="80" width="80" height="80" as="geometry" />
        </mxCell>
        <mxCell id="J0XwKOYpJM9LGYpniT2R-3" value="" style="sketch=0;outlineConnect=0;fontColor=#232F3E;gradientColor=none;fillColor=#B0084D;strokeColor=none;dashed=0;verticalLabelPosition=bottom;verticalAlign=top;align=center;html=1;fontSize=12;fontStyle=0;aspect=fixed;pointerEvents=1;shape=mxgraph.aws4.endpoint;" parent="rIcIW_MhtgpGFl4HYt5P-1" vertex="1">
          <mxGeometry x="441" y="200" width="80" height="80" as="geometry" />
        </mxCell>
        <mxCell id="rIcIW_MhtgpGFl4HYt5P-5" value="Cloudera" style="html=1;whiteSpace=wrap;strokeColor=none;fillColor=#0079D6;labelPosition=center;verticalLabelPosition=middle;verticalAlign=top;align=center;fontSize=12;outlineConnect=0;spacingTop=-6;fontColor=#FFFFFF;sketch=0;shape=mxgraph.sitemap.cloud;" parent="rIcIW_MhtgpGFl4HYt5P-1" vertex="1">
          <mxGeometry x="239.99999999999997" y="80" width="120" height="80" as="geometry" />
        </mxCell>
        <mxCell id="rIcIW_MhtgpGFl4HYt5P-8" value="" style="curved=1;endArrow=classic;html=1;rounded=0;exitX=1;exitY=0.5;exitDx=0;exitDy=0;exitPerimeter=0;entryX=0;entryY=0.5;entryDx=0;entryDy=0;entryPerimeter=0;" parent="rIcIW_MhtgpGFl4HYt5P-1" source="rIcIW_MhtgpGFl4HYt5P-2" target="rIcIW_MhtgpGFl4HYt5P-5" edge="1">
          <mxGeometry width="50" height="50" relative="1" as="geometry">
            <mxPoint x="170" y="320" as="sourcePoint" />
            <mxPoint x="220" y="270" as="targetPoint" />
            <Array as="points">
              <mxPoint x="210" y="250" />
              <mxPoint x="190" y="120" />
            </Array>
          </mxGeometry>
        </mxCell>
        <mxCell id="J0XwKOYpJM9LGYpniT2R-2" value="Airflow" style="shape=image;imageAspect=0;aspect=fixed;verticalLabelPosition=bottom;verticalAlign=top;image=data:image/png,iVBORw0KGgoAAAANSUhEUgAAAOEAAADhCAMAAAAJbSJIAAABvFBMVEX///8Ax9QArUbkOSEBfO4R4e4E1ln/dVcMtv8Aw9FKSEgAeu4Aq0UAce0Muf/jNR0AdO0Ac+0ApzEAqj0Ay9oAqTjiHwAAvP//eFkAs///c1T/bkrjKQAR4/QL1uPiHADjLxAE20r++fjjMhb/aEUE2VEAdfbrd2q97fH2Ykb9xbz0XkPtLQAAr/8DhPABf+/d6vwDw1DP4vv97+3oWUj2yMP64+HwnJRk1uCj5euL4Ofzs63lQy7529jsgXbs+vvW9Pb9lYLTiXdUwf4Gk/QJpPo/SUm81vkCoroDwYUDtJ4DyVN7r/SlyPcBhOMQ3OADs1tGlPEN0cFvyIvk9eqNuvW+5cpcwnzT7tue2K/oY1XtiX/oX1DmSzhR093xp6D9pJS7XmuTgKaUfqK/UlpTndajcIrBi33C6P9osbSxZXeDhKydoJzURj3ggm3o9f7xel9Iot5qksONpqNgs7e2lot6zf7YQjSZ1/69k4e2Pi8wgKhfTktNPjQ+e38oZ7Egacg/YmVgoPJITUBNNzU6aUdNPUgqp6QDzWwBj9QBitwLyqwDw38LzLADu5ACoL1k34d64ptNvXCX56+Q7ganAAAOWklEQVR4nO3d+38TxxEA8NPLspGtkyUkjCSwgrAcklgCjIFg+dHUhIQQcGLHWObhJiRp82gMfYUmbdKSNpBCaQv/cPdOJ+nutO+ZtcSnnZ/8Aaz4+5nZmd3TyrGs/4k4Oz8/f+zYoH8Kc7EwXSAx7UShbDdvndmZnV1evnHj3O7iKwtLRP+i2s9Hzre/aNqxXtgkqk5UKpUyCWIvV2NEvXzj3CLxvkDa82ORsdfdr25VY4Jw1Y6YpLpya2eZWM/OD/jnFwYBRsYuuF8ulW0RMcAlWGIt22eWdxeWhjanDrAjVCV2E0uyWig0d24sLg1fQl1gJOIJrbMVHWInpY4zNntuYZiYHrArBBF7zubs7tIgWb244AEjr3f/aL5ahRHbzHJhemcIlF2gT2jN2whEJ6qVgj27ONCK7QH9Qjyim8vpM7tnhwAYEFrzTTSio6wUbu0OJJN+4NjLgb/CJTrI6ZuL+z4vX/cBw0LrmHh3oxjVcnl5fxtPANgnJMQKMjEWqxTOLAwK2C+0jp3BJ5JEVhcHA6QIzRBjdjm2L8aXQ8DI2CrlX900QXSMr+w/kC40RIzZhTOGe04/kCG0dswQY9XpZZOzgwKMjK3Q/+1O2QwxVqmaa6s0IFNojmhPLxsCrtKAkQhLaM2aIsYqTSP7VQaQmUOTRLtgoKkygJwcWtayMWJs+ty+ASO877pRMEYsIC/GVZaPLzRJLM/uE5AvNErcwQOucIAHBd97zhyxcnM/gJHbou9+AYhcoFholDiFsYXjAzvvzPBi1xyxehdOFADHLohfwtqdNiW0m+AsCoByQmvRWBbtE1Owh3EioO+hPp9oLIvNZBKURSEw+LiUQzSVRftEsQjIohhIeUxDj1dMZbE5BSAeZG5Ge8JV2RdbMJRFu5jUJkoAFYTWgqEs3ppKFktaB8bbEkDe8bCfWAC+wUgPeyqpR5QCRsZUXtIM0T6R1CLelvFFREeLUCwZITandIiyQDWh5n0GUTjCZLKk9ChVGijeeIeIBrJIuqkbxxWI56XWoI7QWoLeZ6AITyRVifJAmaNFKM7iF+qrU4pEBaDcxjtErGITmx1h8rjU83AFoPS2NESsIhO7QiniBRWg9LY0EPMxXKKd7MVx4bNiJaDKps0gsdNMpYhqQKVNmzliQCggKgK5z/S5cQzzVkp3XIiJykDFLY0hYkjIIaoDRc+DeUS8izf2iSk5ojpQY+D7iVjvhNuvhoQMYvgeiUToDHwfEetWSr8weZxyM0UDqDfwfYFEpAiTx3dRgHoD3xc4VzZowj4i9RaCWLgKFOIQw720HaVfwIFqzzAYRIR3wunCAFETCBiHvUC4zxDc09CI2kDl868ZIkuYLP0MCByDjENEos0AdojsaxbCAA6LALFaLpd1n3BQWqmPCACCh0UnlsuV8ocffXHnw+ZrOsgmW0iI2iUa0T87UYgfjx5Kp9OH0p98WlZ/jsMTJku/PAgQYgGtX416kT40eqesOCOpA99H/ExfCDhZhIBzo704NPr5a2of9aOPw04U9ZOI1EpDQMf4G1sljcxh4cVd/TJFaqVhIKlVkkYFIh+YnNLPIU4r7Qc6afxCvlK5jQaUQ5xWepIGJMRPKlVJIb/RJItv6FcpCvAwFUgq9Z7kkxxBo0kWv9QWYuxKmUBnMf5aqt+IGk1poHu2PTZQnigo0q/0l+GqWaAsUdBoSp/pC00DnRATBTuaImAagnc0e0IfyeLXVdgyhKQQ9CRRLoMOMSaai/wUAkYFdN5LZNAl3hOM/lv8bffgjk4rckBnk8rdwPGnYem3gKMTcBnKAgnxDo/IfoIBrFHoMpQHEuLHnIbKmxXFKX0fdBmmVYSjo03mUuTOiuLvACmETcO0TBvtBek2TCFnVgAGhROQTaki0D1LqRcpqMtEQJvSn6sC2UuRU6Ql/SOFG4BNqQaQBP0pI7tIoUDA2VAPmKZPRWaRgoH6s0IPSOr0c0qdMsc9dA0CilQXSMKm1KkxoHaRAoC0OqUXabEEmoPt0CxSAJDU6YfhOqUXafEuAlCzSP8AAZLoe0eDlsLSVxE4UHPc94BpJ/xfS+3iDn0UrFPqMCz9HsHX+V2JWkCimbu4tlavNxpxJxqNen1t7eLcqAQz/XUgiZRhWCzCdmpdoS4wPTq3Vo+nSMT94fxBqlFvO3nCYLPp7zOlr8ZwgDp95v7h0fTcWiNkC0PjhMlRBjZvfX2miFOhEb0+c/9w+mI9nDsGs742x0AGDxmhFKL00HZo9Jn7hy82xLqesuGkkpbET7tJDPWZYumPGD3UDY0U3if5k/Z1U0lFdnfgtqkE6qTw/pqiz1PG+zN56E7naor/GRtZgWgJ1Hl8cV9i+bEyGe9bk97Y942KYukNnBbqhfIztkuTmj4P2Vg7nPYn8bXQqCjexZmBnVBO4aUJCLCNXLvoS6T7kZvuqCgWv0QsUCdUVyEc6CJ7iSRJtMlBagq9g3qh2khPowDjbiLnPKP9zTdfH58ysADdULxgchK0BsNGd36kv32TxJ/uOj7ECdENNaAV1+2iDGTjYvrbPx9wo2jEp9pm3sMFukYPeOA7A77ImGKbuZLBBsZT33eEb5oQKn7KCaeNsoQHhqBG0UvUEf6lI/wrvlD1WPjAQI1ONi7/0Ab+7eFRdKDiIsSv0dRk/fLMzKkfXeB3iUQC2ai6H8X3xYlvZGTk1N8P/PjDwyOJBLZR8W177D6aiT90fSSiuVz+7baQGNGWoyIQczNDIlV7a8TzjUTHo9Fo9lqiGziJXFUDWg8wG2mqdu/RSyOdcIDRXDeJSIlUBZ7EbDOTV9/u+UZORd3I+5LYTiTg5kwkonysR0xhKvPwpZkesJ3CcBKB1XpQGYiYwtpPj/y+kVOekKzEPqJutR5Vv1eClsJM5vJLI4GIdiL3pF/oIJUzeTShDkRLYe2nd2aCwHfGu8Ts+1SiYiqPJjSA1hWcFKZq4QR6o8KLdZbQTaWM8iDx6QAtnGE/+Y9HM2HgiA8YzT/mEMVKl5dI6LyP9i6GkMz4fl+vz7SXIhfYYVKcB48e7fy91huFqk/wqcDU074K9fcZ1sTgUtsR+FMtIEafyVylVGigzzAnhlLo3UdA2HPX7tF8wT4jbDbGgAhH+9pbtAoN9RmpZmMECHubwgX2Dwlan6FuT/cBCN/P1Kg9hlqkzJ2NSSC0SFO1t+lrkFakTrP5pyZRGwgs0lTmCRN4igLUrlP9z78Cd2yT7AyOUIHRnFY/BXzAFwbklGjfMOwm8ak6EQCEvZvG7KLsIo3yDhkGgNYHkBwy5yCnSN1QXYoAoHUVIMz8xANSO6neUoQA9wA7tlSd56ONe82lCAFalwDCGntOuEXKESpNRRAQsuue5C5CXpGqdRsYEHA0TF3lZpA5K7prUfIgBQSu6M8K3iR0lyEfGI2O7wcQsAxT/D7KnRVeEtf3AQiYhrUnfKBgGUoSwUD9uxfCFIqWoRQRDtTflNae8leheBlKEBF+UYn+M6iUoEb509BH5HRUjN/Eov2gVFikEsuwTRxnElF+1Yz2vM/Qnv6qLsN25BmjH+fXkmlvuzOXRctQWhjNUveoSL93TXsaZh7iCaN5ymJEAurfTsj8SyCU95HI5R8fOWICCNnRCDalso2ml8b3fcYjq0hA6wP9g0VNsBAVhWQ1OkYXeSSxgQWEPAtOxf/NI8q3Ul8eo0/fv5ZIXHsczaIRAUen+J7FI6o0ml7k8tl8PpsjWCyi/jJM7ZFv5xCl9my8fF5HAWrv2VKpk+4LsIl6OUQn6rbSVGbPewUmUW5XapyouyvNnOy+xH8YRLgQhaj5joUPyCSCfQ7xGViod/wNAFlEDGE0ByY2dICTp0OvQiXCixSDuKKzDPuAlvWcQkQBOgdkkFBn3z3RD6QSkYRA4ml1IRVII2IJYUT1YTFxifFSz8PPNNCEIKLyyYIJtKwW61IpAnFc+7CoOg45QEKcMSUEEBXPTlxgmIiwp/ERo5t6QrXHUBPvCl4uQATvvFGIahkUAS1ry0eEnp76QouocnaSAAaIuDkkkdMg7ikIpYB+os5TDHSiwsCf+EDyNbe7RHRhNK9MlD//SgN9RHQgyeK2olB6S6MA7BHRWw2JrCJRdkszcUXpZT0i/kIkkVcjSm5pJtWAlrU5Y6pMVbMot6XJqAI7RNRdTY+4pfCDSD3D0AASorEyVSPKbNoyDzSAHtGMUIUo8ZRGE9gmmuimakSDwDbRUBKliSvCIgUAHeKMqSRGsy2pH0F4sTTzHgBIwlwSJYmijTcUaFnvoB8w1IiCN55SYCAh5gZK5B8tMICW9ShnSihD5B4t4CU6BESeMFXHAVrWM4PE54L/NufwhAckxLw5ouDNfrYQE2hZ1wdGZB4PUw20/5WnGxvZARFZx8NUfY/3bRrx3ByReyuFIXQuymDH1mCI9ANwqoEPtKztqLGWyrnPQBWayKAbz4ylkU2kCdtXnYxEK28qjcwrG5SHGJ2rTkZi01gaWUSKMGMQSGIrZyiNjCsb/fcSDQMtc6VKJ9bDwAnjQFKqG1kjRiox/CAqQ79mgW80kkfafYZQkTLukRiIlVbOwFaVQgxuSylXnQxGax2/WPuJE4PJoBfbGznsas2th04MfqHgmoWZ2LqexUWGb6VMDBjYRqJmMnRlY2LwQCe2NqJ4qQwSJ4YC6MRm61kOTdkjdj/ELXnNwnBst67ncZRdYueR93AA3djc2nCTCXN2b6V4wiECtsNl5vMAZ4fYFipds9i/2NxqbTxbdz4ipAP1iO7bFkMK7IQDvb7e/jRUTsGac+fiXm3ogZ1Y2dwm1I3rz9Zz2SzBulye13sL9cHECwIMxOb29tZWq9VyvOPjJL35rKduh2PP5729zel9OA+ajpWVTRKO2o2WExstzfu2/48hi/8CQY87NwjW+zEAAAAASUVORK5CYII=;" parent="rIcIW_MhtgpGFl4HYt5P-1" vertex="1">
          <mxGeometry x="40" y="40" width="40" height="40" as="geometry" />
        </mxCell>
        <mxCell id="CEZRXzg0aLq2lPMZZVaz-3" value="Decrypt" style="endArrow=none;dashed=1;html=1;dashPattern=1 3;strokeWidth=2;rounded=0;exitX=0.5;exitY=1;exitDx=0;exitDy=0;exitPerimeter=0;" parent="rIcIW_MhtgpGFl4HYt5P-1" source="rIcIW_MhtgpGFl4HYt5P-5" target="S5lNL_IuP7KgpRv0ErMl-4" edge="1">
          <mxGeometry x="-0.5048" y="-2" width="50" height="50" relative="1" as="geometry">
            <mxPoint x="350" y="110" as="sourcePoint" />
            <mxPoint x="300" y="180" as="targetPoint" />
            <mxPoint as="offset" />
          </mxGeometry>
        </mxCell>
        <mxCell id="rIcIW_MhtgpGFl4HYt5P-21" value="Snowflake DW" style="shape=image;html=1;verticalAlign=top;verticalLabelPosition=bottom;labelBackgroundColor=#ffffff;imageAspect=0;aspect=fixed;image=https://cdn4.iconfinder.com/data/icons/christmas-2434/128/Artboard_3-128.png" parent="rIcIW_MhtgpGFl4HYt5P-1" vertex="1">
          <mxGeometry x="680" y="280" width="80" height="80" as="geometry" />
        </mxCell>
        <mxCell id="rIcIW_MhtgpGFl4HYt5P-12" style="edgeStyle=orthogonalEdgeStyle;rounded=0;orthogonalLoop=1;jettySize=auto;html=1;exitX=0.5;exitY=0;exitDx=0;exitDy=0;exitPerimeter=0;entryX=0;entryY=0.5;entryDx=0;entryDy=0;entryPerimeter=0;" parent="rIcIW_MhtgpGFl4HYt5P-1" source="rIcIW_MhtgpGFl4HYt5P-5" target="S5lNL_IuP7KgpRv0ErMl-9" edge="1">
          <mxGeometry relative="1" as="geometry">
            <mxPoint x="720" y="50" as="targetPoint" />
            <Array as="points">
              <mxPoint x="300" y="40" />
              <mxPoint x="600" y="40" />
              <mxPoint x="600" y="120" />
            </Array>
          </mxGeometry>
        </mxCell>
        <mxCell id="S5lNL_IuP7KgpRv0ErMl-3" value="&lt;font style=&quot;font-size: 14px;&quot;&gt;Airlift&lt;/font&gt;" style="edgeLabel;html=1;align=center;verticalAlign=middle;resizable=0;points=[];" parent="rIcIW_MhtgpGFl4HYt5P-12" vertex="1" connectable="0">
          <mxGeometry x="-0.025" y="-2" relative="1" as="geometry">
            <mxPoint x="-24" y="-2" as="offset" />
          </mxGeometry>
        </mxCell>
        <mxCell id="zAxKPj2REMfKPNi9c-fR-14" value="5439" style="fontStyle=2;labelPosition=right;verticalLabelPosition=middle;align=left;verticalAlign=middle;spacingLeft=2;fontFamily=Verdana;" vertex="1" parent="rIcIW_MhtgpGFl4HYt5P-1">
          <mxGeometry x="710" y="52" width="20" height="20" as="geometry" />
        </mxCell>
        <mxCell id="zAxKPj2REMfKPNi9c-fR-17" value="Decryption API GW" style="text;html=1;strokeColor=none;fillColor=none;align=center;verticalAlign=middle;whiteSpace=wrap;rounded=0;" vertex="1" parent="rIcIW_MhtgpGFl4HYt5P-1">
          <mxGeometry x="450" y="160" width="60" height="30" as="geometry" />
        </mxCell>
        <mxCell id="zAxKPj2REMfKPNi9c-fR-18" value="443 (HTTPS)" style="fontStyle=2;labelPosition=right;verticalLabelPosition=middle;align=left;verticalAlign=middle;spacingLeft=2;fontFamily=Verdana;" vertex="1" parent="rIcIW_MhtgpGFl4HYt5P-1">
          <mxGeometry x="470" y="280" width="20" height="20" as="geometry" />
        </mxCell>
        <mxCell id="zAxKPj2REMfKPNi9c-fR-20" value="443 (HTTPS)" style="fontStyle=2;labelPosition=right;verticalLabelPosition=middle;align=left;verticalAlign=middle;spacingLeft=2;fontFamily=Verdana;" vertex="1" parent="rIcIW_MhtgpGFl4HYt5P-1">
          <mxGeometry x="710" y="270" width="20" height="20" as="geometry" />
        </mxCell>
        <mxCell id="coNaROBVDg2BK2YJc_qz-3" value="&lt;i&gt;&lt;font face=&quot;Verdana&quot;&gt;&amp;nbsp;Lang = ???&lt;br&gt;Type = WebService&lt;/font&gt;&lt;/i&gt;" style="shape=process;whiteSpace=wrap;html=1;backgroundOutline=1;" vertex="1" parent="rIcIW_MhtgpGFl4HYt5P-1">
          <mxGeometry x="521" y="240" width="159" height="40" as="geometry" />
        </mxCell>
        <mxCell id="coNaROBVDg2BK2YJc_qz-4" value="5432" style="fontStyle=2;labelPosition=right;verticalLabelPosition=middle;align=left;verticalAlign=middle;spacingLeft=2;fontFamily=Verdana;" vertex="1" parent="rIcIW_MhtgpGFl4HYt5P-1">
          <mxGeometry x="70" y="171" width="20" height="20" as="geometry" />
        </mxCell>
        <mxCell id="rIcIW_MhtgpGFl4HYt5P-15" value="RVO AWS account (Region = us-east-1)" style="points=[[0,0],[0.25,0],[0.5,0],[0.75,0],[1,0],[1,0.25],[1,0.5],[1,0.75],[1,1],[0.75,1],[0.5,1],[0.25,1],[0,1],[0,0.75],[0,0.5],[0,0.25]];outlineConnect=0;gradientColor=none;html=1;whiteSpace=wrap;fontSize=12;fontStyle=0;container=1;pointerEvents=0;collapsible=0;recursiveResize=0;shape=mxgraph.aws4.group;grIcon=mxgraph.aws4.group_account;strokeColor=#CD2264;fillColor=none;verticalAlign=top;align=left;spacingLeft=30;fontColor=#CD2264;dashed=0;" parent="1" vertex="1">
          <mxGeometry x="40" y="560" width="800" height="520" as="geometry" />
        </mxCell>
        <mxCell id="coNaROBVDg2BK2YJc_qz-1" style="edgeStyle=orthogonalEdgeStyle;rounded=0;orthogonalLoop=1;jettySize=auto;html=1;entryX=0;entryY=0.5;entryDx=0;entryDy=0;entryPerimeter=0;" edge="1" parent="rIcIW_MhtgpGFl4HYt5P-15" source="rIcIW_MhtgpGFl4HYt5P-18" target="CEZRXzg0aLq2lPMZZVaz-12">
          <mxGeometry relative="1" as="geometry" />
        </mxCell>
        <mxCell id="rIcIW_MhtgpGFl4HYt5P-18" value="" style="sketch=0;pointerEvents=1;shadow=0;dashed=0;html=1;strokeColor=none;fillColor=#DF8C42;labelPosition=center;verticalLabelPosition=bottom;verticalAlign=top;align=center;outlineConnect=0;shape=mxgraph.veeam2.aws_s3;" parent="rIcIW_MhtgpGFl4HYt5P-15" vertex="1">
          <mxGeometry x="480" y="160" width="80" height="80" as="geometry" />
        </mxCell>
        <mxCell id="rIcIW_MhtgpGFl4HYt5P-45" value="Shared Services" style="swimlane;startSize=0;" parent="rIcIW_MhtgpGFl4HYt5P-15" vertex="1">
          <mxGeometry x="80" y="360" width="640" height="119.59" as="geometry" />
        </mxCell>
        <mxCell id="rIcIW_MhtgpGFl4HYt5P-42" value="Lake Formation &lt;br&gt;(PII/PHI)" style="sketch=0;points=[[0,0,0],[0.25,0,0],[0.5,0,0],[0.75,0,0],[1,0,0],[0,1,0],[0.25,1,0],[0.5,1,0],[0.75,1,0],[1,1,0],[0,0.25,0],[0,0.5,0],[0,0.75,0],[1,0.25,0],[1,0.5,0],[1,0.75,0]];outlineConnect=0;fontColor=#232F3E;gradientColor=#945DF2;gradientDirection=north;fillColor=#5A30B5;strokeColor=#ffffff;dashed=0;verticalLabelPosition=bottom;verticalAlign=top;align=center;html=1;fontSize=12;fontStyle=0;aspect=fixed;shape=mxgraph.aws4.resourceIcon;resIcon=mxgraph.aws4.lake_formation;" parent="rIcIW_MhtgpGFl4HYt5P-45" vertex="1">
          <mxGeometry x="520" y="40" width="40" height="40" as="geometry" />
        </mxCell>
        <mxCell id="rIcIW_MhtgpGFl4HYt5P-41" value="Glue Data Catalog" style="sketch=0;outlineConnect=0;fontColor=#232F3E;gradientColor=none;fillColor=#4D27AA;strokeColor=none;dashed=0;verticalLabelPosition=bottom;verticalAlign=top;align=center;html=1;fontSize=12;fontStyle=0;aspect=fixed;pointerEvents=1;shape=mxgraph.aws4.glue_data_catalog;" parent="rIcIW_MhtgpGFl4HYt5P-45" vertex="1">
          <mxGeometry x="281" y="39" width="40" height="43.33" as="geometry" />
        </mxCell>
        <mxCell id="rIcIW_MhtgpGFl4HYt5P-44" value="KMS" style="outlineConnect=0;dashed=0;verticalLabelPosition=bottom;verticalAlign=top;align=center;html=1;shape=mxgraph.aws3.kms;fillColor=#759C3E;gradientColor=none;" parent="rIcIW_MhtgpGFl4HYt5P-45" vertex="1">
          <mxGeometry x="40" y="39" width="40" height="40" as="geometry" />
        </mxCell>
        <mxCell id="1LFbqm2XHdZCkg8zWfsO-6" value="Aurora Serverless&amp;nbsp;&lt;br&gt;(Postgres-compatible)" style="sketch=0;points=[[0,0,0],[0.25,0,0],[0.5,0,0],[0.75,0,0],[1,0,0],[0,1,0],[0.25,1,0],[0.5,1,0],[0.75,1,0],[1,1,0],[0,0.25,0],[0,0.5,0],[0,0.75,0],[1,0.25,0],[1,0.5,0],[1,0.75,0]];outlineConnect=0;fontColor=#232F3E;gradientColor=#4D72F3;gradientDirection=north;fillColor=#3334B9;strokeColor=#ffffff;dashed=0;verticalLabelPosition=bottom;verticalAlign=top;align=center;html=1;fontSize=12;fontStyle=0;aspect=fixed;shape=mxgraph.aws4.resourceIcon;resIcon=mxgraph.aws4.aurora;" parent="rIcIW_MhtgpGFl4HYt5P-15" vertex="1">
          <mxGeometry x="40" y="160" width="80" height="80" as="geometry" />
        </mxCell>
        <mxCell id="J0XwKOYpJM9LGYpniT2R-1" value="Airflow" style="sketch=0;points=[[0,0,0],[0.25,0,0],[0.5,0,0],[0.75,0,0],[1,0,0],[0,1,0],[0.25,1,0],[0.5,1,0],[0.75,1,0],[1,1,0],[0,0.25,0],[0,0.5,0],[0,0.75,0],[1,0.25,0],[1,0.5,0],[1,0.75,0]];outlineConnect=0;fontColor=#232F3E;gradientColor=#FF4F8B;gradientDirection=north;fillColor=#BC1356;strokeColor=#ffffff;dashed=0;verticalLabelPosition=bottom;verticalAlign=top;align=center;html=1;fontSize=12;fontStyle=0;aspect=fixed;shape=mxgraph.aws4.resourceIcon;resIcon=mxgraph.aws4.managed_workflows_for_apache_airflow;" parent="rIcIW_MhtgpGFl4HYt5P-15" vertex="1">
          <mxGeometry x="41" y="41" width="39" height="39" as="geometry" />
        </mxCell>
        <mxCell id="CEZRXzg0aLq2lPMZZVaz-10" style="edgeStyle=orthogonalEdgeStyle;rounded=0;orthogonalLoop=1;jettySize=auto;html=1;" parent="rIcIW_MhtgpGFl4HYt5P-15" source="rIcIW_MhtgpGFl4HYt5P-22" target="rIcIW_MhtgpGFl4HYt5P-18" edge="1">
          <mxGeometry relative="1" as="geometry">
            <Array as="points">
              <mxPoint x="520" y="120" />
            </Array>
          </mxGeometry>
        </mxCell>
        <mxCell id="rIcIW_MhtgpGFl4HYt5P-22" value="&lt;b&gt;Databricks&lt;/b&gt;" style="sketch=0;aspect=fixed;html=1;points=[];align=center;image;fontSize=12;image=img/lib/mscae/Databricks.svg;" parent="rIcIW_MhtgpGFl4HYt5P-15" vertex="1">
          <mxGeometry x="279.17" y="80" width="83.33" height="80" as="geometry" />
        </mxCell>
        <mxCell id="rIcIW_MhtgpGFl4HYt5P-52" value="" style="endArrow=none;dashed=1;html=1;dashPattern=1 3;strokeWidth=2;rounded=0;entryX=0.468;entryY=1.044;entryDx=0;entryDy=0;entryPerimeter=0;exitX=0.375;exitY=0.008;exitDx=0;exitDy=0;exitPerimeter=0;" parent="rIcIW_MhtgpGFl4HYt5P-15" source="rIcIW_MhtgpGFl4HYt5P-45" target="rIcIW_MhtgpGFl4HYt5P-22" edge="1">
          <mxGeometry width="50" height="50" relative="1" as="geometry">
            <mxPoint x="360" y="172" as="sourcePoint" />
            <mxPoint x="410" y="122" as="targetPoint" />
          </mxGeometry>
        </mxCell>
        <mxCell id="CEZRXzg0aLq2lPMZZVaz-11" value="" style="endArrow=none;dashed=1;html=1;dashPattern=1 3;strokeWidth=2;rounded=0;exitX=0.375;exitY=0.008;exitDx=0;exitDy=0;exitPerimeter=0;" parent="rIcIW_MhtgpGFl4HYt5P-15" edge="1">
          <mxGeometry width="50" height="50" relative="1" as="geometry">
            <mxPoint x="521" y="360" as="sourcePoint" />
            <mxPoint x="519" y="240" as="targetPoint" />
          </mxGeometry>
        </mxCell>
        <mxCell id="CEZRXzg0aLq2lPMZZVaz-12" value="Redshift DW&lt;br&gt;(Prevention)" style="outlineConnect=0;dashed=0;verticalLabelPosition=bottom;verticalAlign=top;align=center;html=1;shape=mxgraph.aws3.redshift;fillColor=#2E73B8;gradientColor=none;" parent="rIcIW_MhtgpGFl4HYt5P-15" vertex="1">
          <mxGeometry x="680" y="160" width="80" height="80" as="geometry" />
        </mxCell>
        <mxCell id="WjqKf_IOAuphORq0UVp1-1" value="" style="curved=1;endArrow=classic;html=1;rounded=0;exitX=1;exitY=0.5;exitDx=0;exitDy=0;exitPerimeter=0;" parent="rIcIW_MhtgpGFl4HYt5P-15" edge="1">
          <mxGeometry width="50" height="50" relative="1" as="geometry">
            <mxPoint x="120" y="200" as="sourcePoint" />
            <mxPoint x="280" y="120" as="targetPoint" />
            <Array as="points">
              <mxPoint x="210" y="210" />
              <mxPoint x="190" y="110" />
            </Array>
          </mxGeometry>
        </mxCell>
        <mxCell id="zAxKPj2REMfKPNi9c-fR-13" value="5432" style="fontStyle=2;labelPosition=right;verticalLabelPosition=middle;align=left;verticalAlign=middle;spacingLeft=2;fontFamily=Verdana;" vertex="1" parent="rIcIW_MhtgpGFl4HYt5P-15">
          <mxGeometry x="70" y="134" width="20" height="20" as="geometry" />
        </mxCell>
        <mxCell id="zAxKPj2REMfKPNi9c-fR-19" value="5439" style="fontStyle=2;labelPosition=right;verticalLabelPosition=middle;align=left;verticalAlign=middle;spacingLeft=2;fontFamily=Verdana;" vertex="1" parent="rIcIW_MhtgpGFl4HYt5P-15">
          <mxGeometry x="710" y="133" width="20" height="20" as="geometry" />
        </mxCell>
        <mxCell id="zAxKPj2REMfKPNi9c-fR-21" value="&lt;i&gt;PySpark&lt;/i&gt;" style="shape=image;html=1;verticalAlign=top;verticalLabelPosition=bottom;labelBackgroundColor=#ffffff;imageAspect=0;aspect=fixed;image=https://cdn0.iconfinder.com/data/icons/long-shadow-web-icons/512/python-128.png" vertex="1" parent="rIcIW_MhtgpGFl4HYt5P-15">
          <mxGeometry x="360" y="160" width="40" height="40" as="geometry" />
        </mxCell>
        <mxCell id="zAxKPj2REMfKPNi9c-fR-22" value=" 443 (HTTPS)" style="fontStyle=2;labelPosition=right;verticalLabelPosition=middle;align=left;verticalAlign=middle;spacingLeft=2;fontFamily=Verdana;" vertex="1" parent="rIcIW_MhtgpGFl4HYt5P-15">
          <mxGeometry x="440" y="91" width="20" height="20" as="geometry" />
        </mxCell>
        <mxCell id="zAxKPj2REMfKPNi9c-fR-25" value="boto3 &lt;br&gt;library" style="shape=image;html=1;verticalAlign=top;verticalLabelPosition=bottom;labelBackgroundColor=#ffffff;imageAspect=0;aspect=fixed;image=https://cdn0.iconfinder.com/data/icons/long-shadow-web-icons/512/python-128.png" vertex="1" parent="rIcIW_MhtgpGFl4HYt5P-15">
          <mxGeometry x="332" y="290" width="28" height="28" as="geometry" />
        </mxCell>
        <mxCell id="coNaROBVDg2BK2YJc_qz-5" value=" 443 (HTTPS)" style="fontStyle=2;labelPosition=right;verticalLabelPosition=middle;align=left;verticalAlign=middle;spacingLeft=2;fontFamily=Verdana;" vertex="1" parent="rIcIW_MhtgpGFl4HYt5P-15">
          <mxGeometry x="200" y="329" width="20" height="20" as="geometry" />
        </mxCell>
        <mxCell id="J0XwKOYpJM9LGYpniT2R-7" style="edgeStyle=orthogonalEdgeStyle;rounded=0;orthogonalLoop=1;jettySize=auto;html=1;entryX=0.5;entryY=1;entryDx=0;entryDy=0;" parent="1" source="rIcIW_MhtgpGFl4HYt5P-22" target="zAxKPj2REMfKPNi9c-fR-18" edge="1">
          <mxGeometry relative="1" as="geometry">
            <Array as="points">
              <mxPoint x="361" y="520" />
              <mxPoint x="521" y="520" />
            </Array>
            <mxPoint x="520" y="400" as="targetPoint" />
          </mxGeometry>
        </mxCell>
        <mxCell id="J0XwKOYpJM9LGYpniT2R-8" value="&lt;b&gt;decrypts using API&lt;/b&gt;" style="edgeLabel;html=1;align=center;verticalAlign=middle;resizable=0;points=[];" parent="J0XwKOYpJM9LGYpniT2R-7" vertex="1" connectable="0">
          <mxGeometry x="-0.1147" y="1" relative="1" as="geometry">
            <mxPoint x="46" y="11" as="offset" />
          </mxGeometry>
        </mxCell>
        <mxCell id="rIcIW_MhtgpGFl4HYt5P-33" value="Reports" style="strokeColor=#dddddd;shadow=1;strokeWidth=1;rounded=1;absoluteArcSize=1;arcSize=2;labelPosition=center;verticalLabelPosition=middle;align=center;verticalAlign=bottom;spacingLeft=0;fontColor=#999999;fontSize=12;whiteSpace=wrap;spacingBottom=2;html=1;" parent="1" vertex="1">
          <mxGeometry x="920" y="120" width="80" height="80" as="geometry" />
        </mxCell>
        <mxCell id="rIcIW_MhtgpGFl4HYt5P-34" value="" style="sketch=0;dashed=0;connectable=0;html=1;fillColor=#757575;strokeColor=none;shape=mxgraph.gcp2.report;part=1;" parent="rIcIW_MhtgpGFl4HYt5P-33" vertex="1">
          <mxGeometry x="0.5" width="50" height="50" relative="1" as="geometry">
            <mxPoint x="-25" y="10" as="offset" />
          </mxGeometry>
        </mxCell>
        <mxCell id="rIcIW_MhtgpGFl4HYt5P-40" value="Tableau" style="text;html=1;strokeColor=none;fillColor=none;align=center;verticalAlign=middle;whiteSpace=wrap;rounded=0;" parent="1" vertex="1">
          <mxGeometry x="970" y="210" width="60" height="30" as="geometry" />
        </mxCell>
        <mxCell id="S5lNL_IuP7KgpRv0ErMl-1" value="Replication" style="edgeStyle=orthogonalEdgeStyle;rounded=0;orthogonalLoop=1;jettySize=auto;html=2;jumpSize=10;fontSize=14;fontStyle=1;strokeWidth=3;strokeColor=#0000ff;exitX=0;exitY=0.5;exitDx=0;exitDy=0;exitPerimeter=0;entryX=0;entryY=0.5;entryDx=0;entryDy=0;entryPerimeter=0;" parent="1" source="rIcIW_MhtgpGFl4HYt5P-2" target="1LFbqm2XHdZCkg8zWfsO-6" edge="1">
          <mxGeometry x="-0.1862" y="-20" relative="1" as="geometry">
            <mxPoint x="120" y="700" as="targetPoint" />
            <Array as="points">
              <mxPoint x="-40" y="280" />
              <mxPoint x="-40" y="760" />
            </Array>
            <mxPoint as="offset" />
            <mxPoint x="120" y="340" as="sourcePoint" />
          </mxGeometry>
        </mxCell>
        <mxCell id="J0XwKOYpJM9LGYpniT2R-10" value="1. Cross-Account replica&lt;br&gt;&lt;i&gt;&lt;br&gt;2. AWS DMS&lt;/i&gt;&lt;br&gt;&lt;br&gt;3. &lt;i&gt;RDS Snapshot&lt;/i&gt;&lt;br&gt;&lt;br&gt;4. &lt;i&gt;Debezium&lt;/i&gt;" style="text;html=1;strokeColor=none;fillColor=none;align=left;verticalAlign=middle;whiteSpace=wrap;rounded=0;" parent="1" vertex="1">
          <mxGeometry x="-180" y="520" width="140" height="120" as="geometry" />
        </mxCell>
        <mxCell id="rIcIW_MhtgpGFl4HYt5P-19" value="" style="endArrow=classic;html=1;rounded=0;" parent="1" source="rIcIW_MhtgpGFl4HYt5P-18" target="rIcIW_MhtgpGFl4HYt5P-21" edge="1">
          <mxGeometry width="50" height="50" relative="1" as="geometry">
            <mxPoint x="550" y="720" as="sourcePoint" />
            <mxPoint x="680" y="680" as="targetPoint" />
            <Array as="points">
              <mxPoint x="640" y="760" />
              <mxPoint x="640" y="360" />
            </Array>
          </mxGeometry>
        </mxCell>
        <mxCell id="rIcIW_MhtgpGFl4HYt5P-20" value="COPY" style="edgeLabel;html=1;align=center;verticalAlign=middle;resizable=0;points=[];" parent="rIcIW_MhtgpGFl4HYt5P-19" vertex="1" connectable="0">
          <mxGeometry x="-0.2" y="-1" relative="1" as="geometry">
            <mxPoint x="-1" y="62" as="offset" />
          </mxGeometry>
        </mxCell>
        <mxCell id="CEZRXzg0aLq2lPMZZVaz-7" style="edgeStyle=orthogonalEdgeStyle;rounded=0;orthogonalLoop=1;jettySize=auto;html=1;entryX=0.5;entryY=1;entryDx=0;entryDy=0;" parent="1" source="rIcIW_MhtgpGFl4HYt5P-21" target="rIcIW_MhtgpGFl4HYt5P-33" edge="1">
          <mxGeometry relative="1" as="geometry">
            <mxPoint x="930" y="250" as="targetPoint" />
          </mxGeometry>
        </mxCell>
        <mxCell id="CEZRXzg0aLq2lPMZZVaz-8" style="edgeStyle=orthogonalEdgeStyle;rounded=0;orthogonalLoop=1;jettySize=auto;html=1;entryX=0;entryY=0.5;entryDx=0;entryDy=0;" parent="1" source="S5lNL_IuP7KgpRv0ErMl-9" target="rIcIW_MhtgpGFl4HYt5P-33" edge="1">
          <mxGeometry relative="1" as="geometry" />
        </mxCell>
        <mxCell id="CEZRXzg0aLq2lPMZZVaz-15" value="Reports" style="strokeColor=#dddddd;shadow=1;strokeWidth=1;rounded=1;absoluteArcSize=1;arcSize=2;labelPosition=center;verticalLabelPosition=middle;align=center;verticalAlign=bottom;spacingLeft=0;fontColor=#999999;fontSize=12;whiteSpace=wrap;spacingBottom=2;html=1;" parent="1" vertex="1">
          <mxGeometry x="920" y="720" width="80" height="80" as="geometry" />
        </mxCell>
        <mxCell id="CEZRXzg0aLq2lPMZZVaz-16" value="" style="sketch=0;dashed=0;connectable=0;html=1;fillColor=#757575;strokeColor=none;shape=mxgraph.gcp2.report;part=1;" parent="CEZRXzg0aLq2lPMZZVaz-15" vertex="1">
          <mxGeometry x="0.5" width="50" height="50" relative="1" as="geometry">
            <mxPoint x="-25" y="10" as="offset" />
          </mxGeometry>
        </mxCell>
        <mxCell id="CEZRXzg0aLq2lPMZZVaz-17" value="Tableau" style="text;html=1;strokeColor=none;fillColor=none;align=center;verticalAlign=middle;whiteSpace=wrap;rounded=0;" parent="1" vertex="1">
          <mxGeometry x="970" y="810" width="60" height="30" as="geometry" />
        </mxCell>
        <mxCell id="CEZRXzg0aLq2lPMZZVaz-18" style="edgeStyle=orthogonalEdgeStyle;rounded=0;orthogonalLoop=1;jettySize=auto;html=1;entryX=0;entryY=0.5;entryDx=0;entryDy=0;" parent="1" source="CEZRXzg0aLq2lPMZZVaz-12" target="CEZRXzg0aLq2lPMZZVaz-15" edge="1">
          <mxGeometry relative="1" as="geometry" />
        </mxCell>
        <mxCell id="Gawh2KOxIU3Ali2_JG4v-1" value="&lt;b&gt;Rally Health&lt;/b&gt;" style="text;html=1;strokeColor=none;fillColor=none;align=center;verticalAlign=middle;whiteSpace=wrap;rounded=0;" parent="1" vertex="1">
          <mxGeometry width="80" height="30" as="geometry" />
        </mxCell>
        <mxCell id="j09uvQV2uEdGzQ5cLKNU-1" value="&lt;b&gt;RVO Health&lt;/b&gt;" style="text;html=1;strokeColor=none;fillColor=none;align=center;verticalAlign=middle;whiteSpace=wrap;rounded=0;" parent="1" vertex="1">
          <mxGeometry y="1090" width="80" height="30" as="geometry" />
        </mxCell>
      </root>
    </mxGraphModel>
  </diagram>
</mxfile>
